# xmcd
#
# Track frame offsets:
#	150
#	20861
#	38411
#	54504
#	76060
#	91141
#	106701
#	129590
#	145771
#	161241
#	182753
#	208128
#	227073
#	241484
#	256644
#	272990
#	292212
#	316338
#	336049
# Disc length: 4722 seconds
# Revision: 1
# Processed by: cddbd v1.5.2PL0 Copyright (c) Steve Scherf et al.
#
# Submitted via: libkcddb 0.31
#
DISCID=0b127013
DTITLE=Just Bob - Memories
DYEAR=2004
DGENRE=Country
TTITLE0=Keep  Rockin On
TTITLE1=Forever And Ever
TTITLE2=I do
TTITLE3=It's A Secret
TTITLE4=Honey Don't Go
TTITLE5=I've Had A Lovely Time
TTITLE6=Cruisin'
TTITLE7=Angels
TTITLE8=Memories
TTITLE9=On The Beach
TTITLE10=2035
TTITLE11=Still Raining
TTITLE12=Aching Bones
TTITLE13=Keep Searching
TTITLE14=No Money Blues
TTITLE15=Mother
TTITLE16=It's A Disco
TTITLE17=You're STill The Only One
TTITLE18=We Didn't Stop Crying
EXTD=www.thesongfactory.co.uk
EXTT0=
EXTT1=
EXTT2=
EXTT3=
EXTT4=
EXTT5=
EXTT6=
EXTT7=
EXTT8=
EXTT9=
EXTT10=
EXTT11=
EXTT12=
EXTT13=
EXTT14=
EXTT15=
EXTT16=
EXTT17=
EXTT18=
PLAYORDER=
